<?xml version="1.0" encoding="iso-8859-1"?>
<!-- Uploaded to: SVG Repo, www.svgrepo.com, Generator: SVG Repo Mixer Tools -->
<svg height="800px" width="800px" version="1.1" id="Layer_1" xmlns="http://www.w3.org/2000/svg" xmlns:xlink="http://www.w3.org/1999/xlink" 
	 viewBox="0 0 512 512" xml:space="preserve">
<path style="fill:#FDB51E;" d="M256,60.701c107.889,0,195.299,87.409,195.299,195.299S363.889,451.299,256,451.299
	S60.701,363.889,60.701,256S148.111,60.701,256,60.701z"/>
<path style="fill:#FFD311;" d="M256,7.918c137.026,0,248.082,111.056,248.082,248.082S393.026,504.082,256,504.082
	S7.918,393.026,7.918,256S118.974,7.918,256,7.918z M451.299,256c0-107.889-87.409-195.299-195.299-195.299
	S60.701,148.111,60.701,256S148.111,451.299,256,451.299S451.299,363.889,451.299,256z"/>
<path style="fill:#F9A020;" d="M60.701,256c0,107.889,87.409,195.299,195.299,195.299V60.701
	C148.111,60.701,60.701,148.111,60.701,256z"/>
<path style="fill:#FBC319;" d="M60.701,256c0-107.889,87.409-195.299,195.299-195.299V7.918C118.974,7.918,7.918,118.974,7.918,256
	S118.974,504.082,256,504.082v-52.784C148.111,451.299,60.701,363.889,60.701,256z"/>
<path d="M256,512c-68.386,0-132.676-26.627-181.025-74.975C26.627,388.676,0,324.386,0,256S26.627,123.324,74.975,74.975
	C123.324,26.627,187.614,0,256,0s132.676,26.627,181.025,74.975C485.373,123.324,512,187.614,512,256
	s-26.627,132.676-74.975,181.025C388.676,485.373,324.386,512,256,512z M256,15.835c-64.156,0-124.469,24.979-169.828,70.337
	C40.814,131.531,15.835,191.844,15.835,256s24.979,124.469,70.337,169.828c45.359,45.358,105.672,70.337,169.828,70.337
	s124.469-24.979,169.828-70.337c45.358-45.359,70.337-105.672,70.337-169.828s-24.979-124.469-70.337-169.828
	C380.469,40.814,320.156,15.835,256,15.835z"/>
<path d="M256,459.217c-54.295,0-105.331-21.135-143.706-59.51S52.784,310.295,52.784,256s21.135-105.331,59.51-143.706
	S201.705,52.784,256,52.784s105.331,21.135,143.706,59.51s59.51,89.411,59.51,143.706s-21.135,105.331-59.51,143.706
	S310.295,459.217,256,459.217z M256,68.619C152.677,68.619,68.619,152.677,68.619,256S152.677,443.381,256,443.381
	S443.381,359.323,443.381,256S359.323,68.619,256,68.619z"/>
<path style="fill:#595E62;" d="M256.528,166.268c-0.211,0-0.317,0-0.528,0c-46.661,0-84.454,37.793-84.454,84.454
	c0,46.449,37.476,84.137,83.926,84.454c0.211,0,0.317,0,0.528,0c46.661,0,84.454-37.793,84.454-84.454
	C340.454,204.272,302.977,166.585,256.528,166.268z"/>
<path style="fill:#AFB6BB;" d="M403.794,224.33v52.783h-29.348c-3.061,13.935-8.656,27.025-16.046,38.638l20.797,20.797
	l-37.371,37.371l-20.797-20.797c-11.612,7.39-24.703,12.985-38.638,16.046v29.348h-52.783v-29.348
	c-13.935-3.061-27.025-8.656-38.638-16.046l-20.797,20.797l-37.371-37.371l20.797-20.797c-7.39-11.612-12.985-24.703-16.046-38.638
	h-29.348V224.33h29.348c3.061-13.935,8.656-27.025,16.046-38.638l-20.797-20.797l37.371-37.371l20.797,20.797
	c11.612-7.39,24.703-12.985,38.638-16.046v-29.348h52.783v29.348c13.935,3.061,27.025,8.656,38.638,16.046l20.797-20.797
	l37.371,37.371L358.4,185.692c7.39,11.612,12.985,24.703,16.046,38.638H403.794z M340.454,250.722
	c0-46.449-37.476-84.137-83.926-84.454c-0.211,0-0.317,0-0.528,0c-46.661,0-84.454,37.793-84.454,84.454
	c0,46.449,37.476,84.137,83.926,84.454c0.211,0,0.317,0,0.528,0C302.661,335.175,340.454,297.382,340.454,250.722z"/>
<path d="M290.309,406.433h-68.619v-31.066c-10.243-2.807-20.124-6.916-29.501-12.267l-22.016,22.016l-48.568-48.568l22.015-22.015
	c-5.351-9.378-9.46-19.258-12.267-29.501h-31.065v-68.619h31.066c2.807-10.243,6.916-20.124,12.267-29.501l-22.016-22.017
	l48.568-48.568l22.015,22.015c9.378-5.351,19.258-9.46,29.501-12.267V95.01h68.619v31.066c10.243,2.807,20.124,6.916,29.501,12.267
	l22.015-22.015l48.568,48.568l-22.015,22.015c5.351,9.378,9.46,19.258,12.267,29.501h31.067v68.619h-31.066
	c-2.807,10.243-6.916,20.124-12.267,29.501l22.015,22.015l-48.567,48.569l-22.015-22.015c-9.378,5.351-19.258,9.46-29.501,12.267
	v31.065H290.309z M237.526,390.598h36.948v-27.797l6.219-1.366c12.693-2.79,24.835-7.834,36.086-14.993l5.358-3.41l19.689,19.689
	L368,336.548l-19.689-19.689l3.41-5.358c7.159-11.25,12.204-23.392,14.993-36.086l1.366-6.219h27.797v-36.948h-27.797l-1.366-6.219
	c-2.79-12.693-7.834-24.835-14.993-36.086l-3.41-5.358L368,164.896l-26.174-26.174l-19.689,19.689l-5.358-3.41
	c-11.25-7.158-23.392-12.204-36.086-14.993l-6.219-1.366v-27.797h-36.948v27.797l-6.219,1.366
	c-12.693,2.79-24.835,7.834-36.086,14.993l-5.358,3.41l-19.689-19.689L144,164.896l19.689,19.689l-3.41,5.358
	c-7.158,11.25-12.204,23.392-14.993,36.086l-1.366,6.219h-27.797v36.948h27.797l1.366,6.219c2.79,12.693,7.834,24.835,14.993,36.086
	l3.41,5.358L144,336.548l26.174,26.174l19.689-19.689l5.358,3.41c11.25,7.159,23.392,12.204,36.086,14.993l6.219,1.366
	L237.526,390.598L237.526,390.598z"/>
<path d="M256,343.093h-0.528c-24.625-0.168-47.689-9.849-64.997-27.263c-17.313-17.418-26.847-40.541-26.847-65.108
	c0-50.934,41.437-92.371,92.371-92.371h0.582c24.571,0.168,47.635,9.849,64.944,27.263c17.312,17.418,26.846,40.541,26.846,65.108
	C348.371,301.656,306.934,343.093,256,343.093z M256,174.186c-42.203,0-76.536,34.334-76.536,76.536
	c0,41.916,34.121,76.25,76.062,76.536H256c42.203,0,76.536-34.334,76.536-76.536c0-41.906-34.107-76.234-76.033-76.536H256z"/>
<path style="fill:#FFFFFF;" d="M266.557,242.804h-21.113c-7.277,0-13.196-5.919-13.196-13.196c0-3.535,1.361-6.805,3.832-9.21
	l0.154-0.154c2.404-2.471,5.674-3.832,9.21-3.832h21.113c7.277,0,13.196,5.919,13.196,13.196h15.835
	c0-16.007-13.024-29.031-29.031-29.031h-2.639v-13.196h-15.835v13.196h-2.639c-7.81,0-15.08,3.035-20.483,8.548
	c-5.513,5.403-8.548,12.673-8.548,20.483c0,16.007,13.024,29.031,29.031,29.031h21.113c7.277,0,13.196,5.919,13.196,13.196
	c0,3.535-1.361,6.805-3.832,9.21l-0.154,0.154c-2.404,2.471-5.674,3.832-9.21,3.832h-21.113c-7.277,0-13.196-5.919-13.196-13.196
	h-15.835c0,16.007,13.024,29.031,29.031,29.031h2.639v13.196h15.835v-13.196h2.639c7.81,0,15.08-3.035,20.483-8.548
	c5.513-5.403,8.548-12.673,8.548-20.483C295.588,255.828,282.564,242.804,266.557,242.804z"/>
</svg>